<svg data-v-fde0c5aa="" xmlns="http://www.w3.org/2000/svg" viewBox="0 0 336 192" class="font"><!----><defs data-v-fde0c5aa=""><linearGradient data-v-fde0c5aa="" gradientTransform="rotate(25)" id="0301a11e-199f-4f67-bf6f-019bef302da9" x1="0%" y1="0%" x2="100%" y2="0%"><stop data-v-fde0c5aa="" offset="0%" stop-color="#575D60" stop-opacity="1"></stop><stop data-v-fde0c5aa="" offset="100%" stop-color="#F6E1CD" stop-opacity="1"></stop></linearGradient></defs><!----><defs data-v-fde0c5aa=""><!----></defs><g data-v-fde0c5aa="" id="66af44f0-bc3b-4eca-acef-bae1870e8802" fill="#ffffff" transform="matrix(5.657458563535911,0,0,5.657458563535911,33.493922786818025,49.18452984720304)"><path d="M1.15 12.02L1.15 12.02Q1.15 12.02 2.34 11.51L2.34 11.51L2.41 11.51Q2.66 12.41 3.44 12.41L3.44 12.41Q4.18 12.41 4.71 11.92L4.71 11.92Q5.13 11.53 5.25 11.04L5.25 11.04Q5.28 10.90 5.28 10.77L5.28 10.77Q5.28 10.45 5.08 10.25L5.08 10.25Q4.78 9.95 4.11 9.84L4.11 9.84Q3.25 9.70 2.81 9.32L2.81 9.32Q2.36 8.93 2.36 8.30L2.36 8.30Q2.36 8.07 2.42 7.80L2.42 7.80Q2.63 6.86 3.66 6.23L3.66 6.23Q4.38 5.78 5.17 5.78L5.17 5.78Q6.52 5.78 6.83 7.08L6.83 7.08L5.63 7.59L5.56 7.59Q5.40 6.95 4.90 6.95L4.90 6.95Q4.49 6.95 4.19 7.15L4.19 7.15Q3.83 7.39 3.73 7.83L3.73 7.83Q3.70 7.94 3.70 8.03L3.70 8.03Q3.70 8.30 3.92 8.43L3.92 8.43Q4.24 8.61 4.92 8.76L4.92 8.76Q5.77 8.95 6.21 9.37L6.21 9.37Q6.64 9.78 6.64 10.48L6.64 10.48Q6.64 10.77 6.57 11.12L6.57 11.12Q6.38 12.00 5.39 12.81L5.39 12.81Q4.46 13.58 3.17 13.58L3.17 13.58Q1.63 13.58 1.15 12.02ZM11.50 12.48L10.73 13.58Q9.21 13.58 8.72 12.00L8.72 12.00Q8.58 11.57 8.58 11.03L8.58 11.03Q8.58 10.42 8.75 9.68L8.75 9.68Q9.09 8.24 9.78 7.36L9.78 7.36Q11.01 5.78 12.54 5.78L12.54 5.78Q14.08 5.78 14.55 7.36L14.55 7.36Q14.68 7.80 14.68 8.33L14.68 8.33Q14.68 8.94 14.51 9.68L14.51 9.68L13.92 12.25Q13.85 12.55 14.18 12.55L14.18 12.55L14.70 12.55L14.69 12.62L13.92 13.71Q12.50 13.71 12.50 12.69L12.50 12.69Q12.50 12.49 12.55 12.25L12.55 12.25L13.15 9.68Q13.34 8.83 13.34 8.31L13.34 8.31Q13.34 8.05 13.29 7.85L13.29 7.85Q13.04 6.95 12.26 6.95Q11.49 6.95 10.83 7.85L10.83 7.85Q10.41 8.42 10.12 9.68L10.12 9.68Q9.93 10.51 9.93 11.03L9.93 11.03Q9.93 11.31 9.98 11.51L9.98 11.51Q10.23 12.41 10.99 12.41L10.99 12.41L11.52 12.41L11.50 12.48ZM20.58 12.28L20.58 12.28Q20.58 12.28 22.27 12.28L22.27 12.28L22.26 12.35L21.49 13.44L18.29 13.44L18.31 13.37L19.07 12.28Q20.04 11.70 20.46 11.16L20.46 11.16Q20.98 10.49 21.16 9.68L21.16 9.68Q21.36 8.84 21.36 8.31L21.36 8.31Q21.36 8.03 21.30 7.85L21.30 7.85Q21.07 6.95 20.28 6.95L20.28 6.95Q19.50 6.95 18.84 7.85L18.84 7.85Q18.43 8.41 18.14 9.68L18.14 9.68L17.35 13.10L15.91 13.71L15.84 13.71L16.77 9.68Q17.10 8.25 17.79 7.36L17.79 7.36Q19.03 5.78 20.55 5.78L20.55 5.78Q22.11 5.78 22.57 7.36L22.57 7.36Q22.70 7.83 22.70 8.38L22.70 8.38Q22.70 8.99 22.54 9.68L22.54 9.68Q22.16 11.33 20.58 12.28ZM25.95 9.68L25.95 9.68Q25.76 10.53 25.76 11.05L25.76 11.05Q25.76 11.32 25.81 11.51L25.81 11.51Q26.07 12.41 26.83 12.41Q27.60 12.41 28.27 11.51L28.27 11.51Q28.69 10.94 28.98 9.68L28.98 9.68Q29.17 8.84 29.17 8.31L29.17 8.31Q29.17 8.03 29.11 7.85L29.11 7.85Q28.88 6.95 28.09 6.95L28.09 6.95Q27.29 6.95 26.63 7.86L26.63 7.86Q26.24 8.42 25.95 9.68ZM24.58 9.69L24.58 9.69Q24.91 8.25 25.61 7.36L25.61 7.36Q26.84 5.78 28.36 5.78Q29.88 5.78 30.38 7.36L30.38 7.36Q30.52 7.79 30.52 8.33L30.52 8.33Q30.52 8.93 30.34 9.68L30.34 9.68Q30.00 11.14 29.32 12.00L29.32 12.00Q28.07 13.58 26.56 13.58L26.56 13.58Q25.07 13.58 24.54 12.00L24.54 12.00Q24.40 11.59 24.40 11.07L24.40 11.07Q24.40 10.47 24.58 9.69ZM31.88 13.71L31.81 13.71L34.17 3.46L35.62 2.84L35.68 2.84L34.37 8.54L37.66 5.65L37.73 5.65L38.80 6.21L36.29 8.30Q37.24 8.43 37.73 8.93L37.73 8.93Q38.25 9.45 38.25 10.12L38.25 10.12Q38.25 10.34 38.19 10.57L38.19 10.57Q37.95 11.61 36.46 12.28L36.46 12.28L38.15 12.28L38.14 12.35L37.37 13.44L34.17 13.44L34.19 13.37L34.95 12.28Q35.56 12.10 36.08 11.71L36.08 11.71Q36.67 11.27 36.83 10.57L36.83 10.57Q36.86 10.42 36.86 10.29L36.86 10.29Q36.86 9.93 36.60 9.67L36.60 9.67Q36.33 9.39 35.64 9.39L35.64 9.39Q35.02 9.39 34.51 9.75L34.51 9.75Q34.00 10.11 33.82 10.90L33.82 10.90L33.32 13.10L31.88 13.71ZM41.83 9.68L41.83 9.68Q41.64 10.53 41.64 11.05L41.64 11.05Q41.64 11.32 41.69 11.51L41.69 11.51Q41.95 12.41 42.71 12.41Q43.48 12.41 44.15 11.51L44.15 11.51Q44.57 10.94 44.86 9.68L44.86 9.68Q45.05 8.84 45.05 8.31L45.05 8.31Q45.05 8.03 44.99 7.85L44.99 7.85Q44.76 6.95 43.97 6.95L43.97 6.95Q43.17 6.95 42.51 7.86L42.51 7.86Q42.12 8.42 41.83 9.68ZM40.46 9.69L40.46 9.69Q40.79 8.25 41.49 7.36L41.49 7.36Q42.72 5.78 44.24 5.78Q45.76 5.78 46.26 7.36L46.26 7.36Q46.40 7.79 46.40 8.33L46.40 8.33Q46.40 8.93 46.22 9.68L46.22 9.68Q45.88 11.14 45.20 12.00L45.20 12.00Q43.95 13.58 42.44 13.58L42.44 13.58Q40.95 13.58 40.42 12.00L40.42 12.00Q40.28 11.59 40.28 11.07L40.28 11.07Q40.28 10.47 40.46 9.69Z"></path></g><!----><!----></svg>